<?xml version="1.0" encoding="utf-8"?>
<!-- Generator: Adobe Illustrator 16.0.0, SVG Export Plug-In . SVG Version: 6.00 Build 0)  -->
<!DOCTYPE svg PUBLIC "-//W3C//DTD SVG 1.1//EN" "http://www.w3.org/Graphics/SVG/1.1/DTD/svg11.dtd">
<svg version="1.1" id="Layer_1" xmlns="http://www.w3.org/2000/svg" xmlns:xlink="http://www.w3.org/1999/xlink" x="0px" y="0px"
	 width="612px" height="611.98px" viewBox="0 0 612 611.98" enable-background="new 0 0 612 611.98" xml:space="preserve">
<path fill="#39A500" d="M612,306.937l-80.325-64.814l51.638-89.601L474.3,142.997l-9.563-104.863l-91.8,43.854L309.825,0
	l-59.288,83.882L154.912,34.31l-5.738,108.668l-107.1,5.718l40.162,102.95L0,301.219l84.15,62.922l-42.075,89.6l105.188,11.438
	L153,571.952l97.538-45.767l65.024,85.795l57.375-85.795l89.889,43.854l7.648-106.773l105.188-1.912l-38.25-87.708L612,306.937z
	 M265.589,156.114c0-26.088,14.835-39.388,40.411-39.388s40.412,13.299,40.412,39.388v59.337c0,7.672-1.025,15.856-2.049,24.041
	l-15.856,119.695c-2.046,14.836-9.208,18.93-22.507,18.93c-13.301,0-20.461-4.092-22.509-18.93l-15.856-119.695
	c-1.023-8.185-2.046-16.369-2.046-24.041V156.114z M306,495.254c-23.021,0-41.945-18.926-41.945-41.943
	c0-23.02,18.927-41.943,41.945-41.943c23.018,0,41.945,18.924,41.945,41.943C347.945,476.328,329.018,495.254,306,495.254z"/>
</svg>
