<?xml version="1.0" encoding="utf-8"?>
<!-- Generator: Adobe Illustrator 16.0.0, SVG Export Plug-In . SVG Version: 6.00 Build 0)  -->
<!DOCTYPE svg PUBLIC "-//W3C//DTD SVG 1.1//EN" "http://www.w3.org/Graphics/SVG/1.1/DTD/svg11.dtd">
<svg version="1.1" id="Layer_1" xmlns="http://www.w3.org/2000/svg" xmlns:xlink="http://www.w3.org/1999/xlink" x="0px" y="0px"
	 width="296px" height="179.333px" viewBox="0 0 296 179.333" enable-background="new 0 0 296 179.333" xml:space="preserve">
<g>
	<g>
		<path fill="#999999" d="M253.885,49.694c-0.773-4.088-2.648-7.789-5.628-11.099c-3.656-4.069-7.821-6.43-12.494-7.089
			c-4.672-0.657-9.896,0.618-15.678,3.816c2.208-3.881,3.322-7.453,3.338-10.727c0.024-4.911-1.659-9.253-5.057-13.027
			c-4.048-4.503-9.163-6.734-15.346-6.691c-6.182,0.042-12.482,2.95-18.906,8.727L151.34,43.076c0.314,0.743,0.67,1.597,0.802,2.053
			c0.525,1.807,0.813,3.629,0.893,5.467v-0.001l0.001,0.879c1.479-0.075,3.027-0.106,4.685-0.065
			c30.985,0.75,28.948,18.631,28.948,18.631s3.854,16.997-33.607,30.703v0.335l34.241-0.042l0.013,11.101h15.715l-0.002-0.003
			l35.537-31.951c1.513-1.365,4.326-4.42,8.438-9.169c3.093-3.569,5.071-6.61,5.938-9.121
			C254.341,57.846,254.656,53.778,253.885,49.694z M197.827,46.587l-8.951,8.05l-10.891-12.116l9.086-8.171
			c3.122-2.807,5.782-4.252,7.979-4.336c2.195-0.086,4.132,0.802,5.805,2.66c1.804,2.005,2.551,4.104,2.247,6.293
			C202.801,41.16,201.039,43.698,197.827,46.587z M227.815,61.745c-0.365,2.513-2.324,5.364-5.867,8.55l-10.499,9.442
			l-11.641-12.944l10.456-9.4c3.604-3.239,6.642-4.934,9.113-5.082c2.471-0.146,4.554,0.725,6.252,2.612
			C227.463,56.958,228.189,59.231,227.815,61.745z"/>
		<path fill="#999999" d="M168.789,71.25c0,0-0.533-9.338-11.851-9.118c-1.504,0.027-2.789,0.212-3.898,0.506l0.014,24.447
			C161.783,82.163,169.088,76.458,168.789,71.25z"/>
	</g>
	<g>
		<g>
			<path fill="#999999" d="M34.292,122.808c-4.229-2.144-10.737-3.232-19.339-3.232H0.962v59.806h14.192
				c7.739,0,13.049-0.475,16.23-1.46c3.18-0.979,6.167-2.772,8.881-5.32c2.711-2.552,4.866-5.793,6.401-9.648
				c1.528-3.839,2.304-8.1,2.304-12.66c0-6.417-1.387-12.115-4.123-16.936C42.102,128.515,38.554,124.969,34.292,122.808z
				 M17.993,167.02h-4.404v-35.199H16.6c6.688,0,11.587,1.472,14.557,4.378c3.309,3.241,4.987,7.896,4.987,13.836
				c0,3.871-0.707,7.161-2.102,9.786c-1.379,2.59-3.161,4.456-5.303,5.541C26.563,166.461,22.947,167.02,17.993,167.02z"/>
			<rect x="57.26" y="119.576" fill="#999999" width="12.626" height="59.806"/>
			<path fill="#999999" d="M109.615,148.286v11.969h16.487c-1.471,2.723-3.333,4.784-5.543,6.126
				c-2.511,1.528-5.657,2.303-9.348,2.303c-5.696,0-10.548-1.898-14.421-5.644c-3.865-3.737-5.825-8.358-5.825-13.736
				c0-5.199,1.887-9.675,5.609-13.309c3.726-3.638,8.423-5.483,13.956-5.483c6.366,0,12.026,2.56,16.824,7.603l0.544,0.57
				l8.956-8.802l-0.514-0.554c-3.643-3.919-7.433-6.726-11.263-8.345c-4.512-1.906-9.427-2.875-14.607-2.875
				c-9.931,0-18.115,3.513-24.322,10.438c-5.235,5.822-7.889,12.765-7.889,20.634c0,5.734,1.435,11.154,4.264,16.106
				c2.836,4.963,6.743,8.841,11.616,11.524c4.861,2.676,10.463,4.033,16.649,4.033c5.795,0,10.923-1.244,15.245-3.702
				c4.326-2.461,7.893-6.07,10.607-10.742c2.716-4.666,4.091-9.671,4.09-14.906l-0.103-3.209H109.615z"/>
			<rect x="148.622" y="119.576" fill="#999999" width="12.63" height="59.806"/>
			<polygon fill="#999999" points="166.474,132.058 176.874,132.058 176.874,179.381 189.74,179.381 189.74,132.058 
				200.418,132.058 200.418,119.576 166.474,119.576 			"/>
			<path fill="#999999" d="M224.644,119.576l-23.205,59.806h13.252l4.77-11.999h22.854l4.587,11.999h13.261l-23.144-59.806H224.644z
				 M224.173,155.021l6.725-17.103l6.682,17.103H224.173z"/>
			<polygon fill="#999999" points="279.587,167.259 279.587,119.576 266.879,119.576 266.879,179.381 295.843,179.381 
				295.843,167.259 			"/>
		</g>
		<g>
			<path fill="#999999" d="M1.736,120.352h13.217c8.519,0,14.848,1.052,18.989,3.147c4.141,2.098,7.551,5.512,10.232,10.237
				c2.68,4.727,4.02,10.244,4.02,16.556c0,4.486-0.75,8.614-2.25,12.376c-1.501,3.764-3.57,6.883-6.21,9.364
				c-2.642,2.482-5.503,4.198-8.579,5.146c-3.078,0.952-8.413,1.425-16.002,1.425H1.736V120.352z M12.811,131.043v36.751h5.182
				c5.1,0,8.797-0.581,11.097-1.745c2.299-1.162,4.177-3.116,5.638-5.865c1.462-2.751,2.191-6.134,2.191-10.149
				c0-6.187-1.741-10.98-5.219-14.391c-3.133-3.064-8.167-4.601-15.099-4.601H12.811z"/>
			<path fill="#999999" d="M58.036,120.352h11.077v58.252H58.036V120.352z"/>
			<path fill="#999999" d="M135.771,129.856l-7.857,7.721c-4.971-5.227-10.766-7.838-17.385-7.838
				c-5.77,0-10.604,1.899-14.497,5.701c-3.893,3.803-5.842,8.425-5.842,13.863c0,5.619,2.021,10.384,6.061,14.292
				c4.042,3.909,9.029,5.864,14.96,5.864c3.854,0,7.104-0.806,9.752-2.417c2.645-1.61,4.777-4.133,6.401-7.564H110.39v-10.412
				h29.488l0.077,2.454c0,5.093-1.327,9.924-3.985,14.492c-2.657,4.567-6.094,8.055-10.318,10.456
				c-4.226,2.4-9.178,3.602-14.864,3.602c-6.082,0-11.508-1.312-16.275-3.939c-4.768-2.626-8.542-6.367-11.314-11.229
				c-2.778-4.855-4.165-10.095-4.165-15.721c0-7.71,2.563-14.415,7.69-20.116c6.084-6.787,13.999-10.178,23.746-10.178
				c5.101,0,9.869,0.938,14.306,2.812C128.52,123.282,132.186,125.999,135.771,129.856z"/>
			<path fill="#999999" d="M149.398,120.352h11.078v58.252h-11.078V120.352z"/>
			<path fill="#999999" d="M167.248,120.352h32.394v10.929h-10.677v47.323h-11.315v-47.323h-10.401V120.352z"/>
			<path fill="#999999" d="M225.175,120.352h11.312l22.543,58.252h-11.594l-4.588-11.996h-23.912l-4.771,11.996h-11.595
				L225.175,120.352z M230.9,135.798l-7.864,19.999h15.679L230.9,135.798z"/>
			<path fill="#999999" d="M267.655,120.352h11.155v47.682h16.256v10.57h-27.411V120.352z"/>
		</g>
	</g>
	<path fill="#999999" d="M151.526,87.93l-0.014-24.772c-5.635,2.39-5.175,8.123-5.175,8.123l-18.798,0.021
		c0,0-0.675-17.773,23.966-19.729l-0.001-1.011l0.003,0.034c-0.082-1.838-0.369-3.661-0.895-5.467
		c-1.156-3.993-3.376-7.499-6.657-10.514c-4.027-3.699-8.399-5.652-13.114-5.862c-4.716-0.209-9.796,1.554-15.247,5.292
		c1.83-4.071,2.598-7.737,2.304-10.997c-0.444-4.888-2.535-9.051-6.277-12.486c-4.46-4.095-9.766-5.828-15.912-5.197
		c-6.15,0.63-12.145,4.125-17.99,10.488L42.666,54.021l63.272,58.116h0.119h18.614l0.247-12.487
		C124.918,99.649,139.246,94.61,151.526,87.93z M86.374,56.246L74.375,45.225l8.269-9.003c2.838-3.09,5.348-4.782,7.528-5.075
		c2.179-0.293,4.191,0.404,6.032,2.096c1.985,1.824,2.931,3.842,2.836,6.052c-0.091,2.21-1.6,4.905-4.522,8.085L86.374,56.246z
		 M120.783,68.685l-9.547,10.395L98.416,67.307l9.51-10.353c3.278-3.572,6.143-5.546,8.588-5.929
		c2.445-0.379,4.602,0.288,6.473,2.005c2.014,1.85,2.956,4.044,2.829,6.582C125.687,62.146,124.01,65.171,120.783,68.685z"/>
</g>
</svg>
