<?xml version="1.0" encoding="utf-8"?>
<!-- Generator: Adobe Illustrator 16.0.0, SVG Export Plug-In . SVG Version: 6.00 Build 0)  -->
<!DOCTYPE svg PUBLIC "-//W3C//DTD SVG 1.1//EN" "http://www.w3.org/Graphics/SVG/1.1/DTD/svg11.dtd">
<svg version="1.1" id="Capa_1" xmlns="http://www.w3.org/2000/svg" xmlns:xlink="http://www.w3.org/1999/xlink" x="0px" y="0px"
	 width="512px" height="512px" viewBox="0 0 512 512" enable-background="new 0 0 512 512" xml:space="preserve">
<g>
	<path fill="#FF9900" d="M256,0C114.867,0,0,114.854,0,256s114.867,256,256,256c141.171,0,256-114.854,256-256S397.171,0,256,0z
		 M368.87,228.8L259.277,338.419c-7.629,7.616-17.626,11.431-27.623,11.431c-9.971,0-19.98-3.814-27.597-11.431l-60.902-60.902
		c-15.245-15.245-15.245-39.987,0-55.206c15.245-15.258,39.949-15.258,55.219,0l33.28,33.28l82.022-82.009
		c15.206-15.219,39.975-15.219,55.193,0C384.128,188.826,384.128,213.555,368.87,228.8z"/>
</g>
</svg>
