<?xml version="1.0" encoding="utf-8"?>
<!-- Generator: Adobe Illustrator 16.0.0, SVG Export Plug-In . SVG Version: 6.00 Build 0)  -->
<!DOCTYPE svg PUBLIC "-//W3C//DTD SVG 1.1//EN" "http://www.w3.org/Graphics/SVG/1.1/DTD/svg11.dtd">
<svg version="1.1" id="Capa_1" xmlns="http://www.w3.org/2000/svg" xmlns:xlink="http://www.w3.org/1999/xlink" x="0px" y="0px"
	 width="300px" height="300px" viewBox="0 0 300 300" enable-background="new 0 0 300 300" xml:space="preserve">
<circle fill="#D75A4A" cx="150" cy="150" r="144.231"/>
<path fill="#66FF00" d="M250.807,46.861L46.861,250.807C73.048,277.596,109.579,294.23,150,294.23
	c79.656,0,144.23-64.574,144.23-144.23C294.23,109.579,277.596,73.048,250.807,46.861z"/>
<path fill="#38454F" d="M150,30.769c31.848,0,61.789,12.402,84.309,34.922c22.52,22.52,34.922,52.461,34.922,84.309
	s-12.402,61.789-34.922,84.309S181.848,269.23,150,269.23s-61.789-12.402-84.309-34.922c-22.52-22.52-34.922-52.461-34.922-84.309
	s12.402-61.789,34.922-84.309C88.211,43.171,118.152,30.769,150,30.769 M150,5.769C70.344,5.769,5.769,70.344,5.769,150
	S70.344,294.23,150,294.23S294.23,229.656,294.23,150S229.656,5.769,150,5.769L150,5.769z"/>
<rect x="137.5" y="13.764" transform="matrix(0.7071 0.7071 -0.7071 0.7071 150.0002 -62.1321)" fill="#38454F" width="25" height="272.473"/>
</svg>
