<?xml version="1.0" encoding="utf-8"?>
<!-- Generator: Adobe Illustrator 16.0.0, SVG Export Plug-In . SVG Version: 6.00 Build 0)  -->
<!DOCTYPE svg PUBLIC "-//W3C//DTD SVG 1.1//EN" "http://www.w3.org/Graphics/SVG/1.1/DTD/svg11.dtd">
<svg version="1.1" id="Layer_1" xmlns="http://www.w3.org/2000/svg" xmlns:xlink="http://www.w3.org/1999/xlink" x="0px" y="0px"
	 width="296px" height="179.333px" viewBox="0 0 296 179.333" enable-background="new 0 0 296 179.333" xml:space="preserve">
<g>
	<g>
		<g>
			<path fill="none" d="M200.854,32.674c-1.673-1.858-3.609-2.747-5.805-2.66c-2.196,0.083-4.856,1.529-7.979,4.336l-9.086,8.171
				l10.891,12.116l8.951-8.05c3.212-2.889,4.974-5.427,5.274-7.62C203.405,36.777,202.658,34.679,200.854,32.674z"/>
			<path fill="none" d="M219.378,52.312c-2.472,0.148-5.51,1.843-9.113,5.082l-10.456,9.4l11.641,12.944l10.499-9.442
				c3.543-3.186,5.502-6.037,5.867-8.55c0.374-2.514-0.353-4.788-2.186-6.822C223.932,53.036,221.849,52.165,219.378,52.312z"/>
			<path fill="#C22821" d="M253.885,49.694c-0.773-4.088-2.648-7.789-5.628-11.099c-3.656-4.069-7.821-6.43-12.494-7.089
				c-4.672-0.657-9.896,0.618-15.678,3.816c2.208-3.881,3.322-7.453,3.338-10.727c0.024-4.911-1.659-9.253-5.057-13.027
				c-4.048-4.503-9.163-6.734-15.346-6.691c-6.182,0.042-12.482,2.95-18.906,8.727L151.34,43.076
				c0.314,0.743,0.67,1.597,0.802,2.053c0.525,1.807,0.813,3.629,0.893,5.467v-0.001l0.032,61.542h49.963l-0.002-0.003
				l35.537-31.951c1.513-1.365,4.326-4.42,8.438-9.169c3.093-3.569,5.071-6.61,5.938-9.121
				C254.341,57.846,254.656,53.778,253.885,49.694z M197.827,46.587l-8.951,8.05l-10.891-12.116l9.086-8.171
				c3.122-2.807,5.782-4.252,7.979-4.336c2.195-0.086,4.132,0.802,5.805,2.66c1.804,2.005,2.551,4.104,2.247,6.293
				C202.801,41.16,201.039,43.698,197.827,46.587z M227.815,61.745c-0.365,2.513-2.324,5.364-5.867,8.55l-10.499,9.442
				l-11.641-12.944l10.456-9.4c3.604-3.239,6.642-4.934,9.113-5.082c2.471-0.146,4.554,0.725,6.252,2.612
				C227.463,56.958,228.189,59.231,227.815,61.745z"/>
		</g>
		<path fill="#043A63" d="M151.508,50.596c-0.082-1.838-0.369-3.661-0.895-5.467c-1.156-3.993-3.376-7.499-6.657-10.514
			c-4.027-3.699-8.399-5.652-13.114-5.862c-4.716-0.209-9.796,1.554-15.247,5.292c1.83-4.071,2.598-7.737,2.304-10.997
			c-0.444-4.888-2.535-9.051-6.277-12.486c-4.46-4.095-9.766-5.828-15.912-5.197c-6.15,0.63-12.145,4.125-17.99,10.488
			L42.666,54.021l63.272,58.116l0,0h0.119h45.484l-0.036-61.575L151.508,50.596z M86.374,56.246L74.375,45.225l8.269-9.003
			c2.838-3.09,5.348-4.782,7.528-5.075c2.179-0.293,4.191,0.404,6.032,2.096c1.985,1.824,2.931,3.842,2.836,6.052
			c-0.091,2.21-1.6,4.905-4.522,8.085L86.374,56.246z M98.416,67.307l9.51-10.353c3.278-3.572,6.143-5.546,8.588-5.929
			c2.445-0.379,4.602,0.288,6.473,2.005c2.014,1.85,2.956,4.044,2.829,6.582c-0.129,2.535-1.806,5.56-5.032,9.074l-9.547,10.395
			L98.416,67.307z"/>
		<path fill="#FFFFFF" d="M146.337,71.28l-18.798,0.021c0,0-0.806-20.664,30.18-19.893c30.985,0.75,28.948,18.631,28.948,18.631
			s3.925,17.276-34.526,31.039l35.16-0.042l0.013,11.101h-62.644l0.247-12.487c0,0,44.602-15.683,43.871-28.399
			c0,0-0.533-9.338-11.851-9.118C145.611,62.337,146.337,71.28,146.337,71.28z"/>
	</g>
	<g>
		<g>
			<path fill="#043A63" d="M5.324,120.332H18.42c8.442,0,14.715,1.042,18.817,3.119c4.104,2.079,7.483,5.462,10.14,10.145
				c2.658,4.684,3.983,10.151,3.983,16.406c0,4.445-0.743,8.536-2.228,12.264c-1.487,3.729-3.539,6.821-6.155,9.28
				c-2.617,2.46-5.451,4.16-8.5,5.1c-3.053,0.943-8.336,1.412-15.86,1.412H5.324V120.332z M16.3,130.926v36.419h5.133
				c5.053,0,8.72-0.576,10.995-1.729c2.278-1.151,4.141-3.088,5.588-5.813c1.447-2.726,2.172-6.078,2.172-10.058
				c0-6.13-1.726-10.881-5.173-14.26c-3.108-3.037-8.094-4.56-14.964-4.56H16.3z"/>
			<path fill="#043A63" d="M61.115,120.332h10.975v57.726H61.115V120.332z"/>
			<path fill="#043A63" d="M138.147,129.75l-7.786,7.651c-4.928-5.18-10.669-7.768-17.229-7.768c-5.72,0-10.507,1.883-14.367,5.649
				c-3.859,3.769-5.788,8.349-5.788,13.738c0,5.568,2,10.29,6.006,14.163c4.007,3.874,8.948,5.811,14.823,5.811
				c3.82,0,7.043-0.798,9.666-2.395c2.62-1.596,4.734-4.096,6.343-7.496h-16.818v-10.318h29.215l0.081,2.433
				c0,5.046-1.315,9.834-3.948,14.36c-2.633,4.526-6.044,7.982-10.228,10.362c-4.186,2.378-9.095,3.568-14.727,3.568
				c-6.029,0-11.405-1.3-16.13-3.903c-4.725-2.603-8.464-6.31-11.212-11.127c-2.752-4.812-4.127-10.004-4.127-15.579
				c0-7.64,2.54-14.284,7.62-19.934c6.029-6.727,13.871-10.086,23.534-10.086c5.053,0,9.779,0.929,14.172,2.786
				C130.959,123.235,134.59,125.927,138.147,129.75z"/>
			<path fill="#043A63" d="M151.647,120.332h10.979v57.726h-10.979V120.332z"/>
			<path fill="#043A63" d="M169.339,120.332h32.1v10.83h-10.582v46.896h-11.212v-46.896h-10.306V120.332z"/>
			<path fill="#043A63" d="M226.738,120.332h11.214l22.336,57.726h-11.49l-4.543-11.888h-23.701l-4.723,11.888h-11.489
				L226.738,120.332z M232.413,135.638l-7.792,19.818h15.538L232.413,135.638z"/>
			<path fill="#043A63" d="M268.835,120.332h11.058v47.251H296v10.475h-27.165V120.332z"/>
		</g>
		<g>
			<path fill="#9A999E" d="M33.991,122.765c-4.191-2.124-10.64-3.203-19.164-3.203H0.962v59.266h14.063
				c7.669,0,12.931-0.471,16.083-1.447c3.151-0.971,6.111-2.747,8.801-5.272c2.687-2.528,4.822-5.74,6.343-9.561
				c1.515-3.805,2.283-8.026,2.283-12.546c0-6.359-1.375-12.006-4.086-16.782C41.729,128.421,38.214,124.907,33.991,122.765z
				 M17.839,166.578h-4.364v-34.881h2.984c6.627,0,11.483,1.458,14.426,4.338c3.278,3.212,4.941,7.824,4.941,13.711
				c0,3.836-0.701,7.097-2.083,9.698c-1.367,2.566-3.132,4.415-5.255,5.49C26.332,166.024,22.748,166.578,17.839,166.578z"/>
			<rect x="56.751" y="119.562" fill="#9A999E" width="12.512" height="59.266"/>
			<path fill="#9A999E" d="M108.632,148.013v11.86h16.338c-1.458,2.697-3.302,4.74-5.493,6.07c-2.489,1.515-5.606,2.282-9.263,2.282
				c-5.645,0-10.453-1.882-14.291-5.593c-3.83-3.704-5.772-8.283-5.772-13.612c0-5.152,1.87-9.587,5.558-13.188
				c3.692-3.604,8.347-5.434,13.829-5.434c6.309,0,11.918,2.536,16.672,7.534l0.539,0.564l8.875-8.722l-0.509-0.549
				c-3.61-3.884-7.365-6.665-11.161-8.27c-4.471-1.889-9.341-2.849-14.475-2.849c-9.841,0-17.951,3.48-24.102,10.344
				c-5.188,5.77-7.817,12.649-7.817,20.447c0,5.683,1.422,11.054,4.226,15.961c2.811,4.918,6.682,8.761,11.511,11.42
				c4.817,2.652,10.369,3.997,16.499,3.997c5.742,0,10.824-1.233,15.106-3.669c4.287-2.438,7.822-6.016,10.511-10.645
				c2.691-4.624,4.054-9.584,4.053-14.771l-0.102-3.18H108.632z"/>
			<rect x="147.287" y="119.562" fill="#9A999E" width="12.515" height="59.266"/>
			<polygon fill="#9A999E" points="164.977,131.932 175.283,131.932 175.283,178.828 188.033,178.828 188.033,131.932 
				198.614,131.932 198.614,119.562 164.977,119.562 			"/>
			<path fill="#9A999E" d="M222.62,119.562l-22.995,59.266h13.133l4.726-11.891h22.647l4.545,11.891h13.141l-22.934-59.266H222.62z
				 M222.154,154.687l6.663-16.947l6.622,16.947H222.154z"/>
			<polygon fill="#9A999E" points="277.067,166.815 277.067,119.562 264.474,119.562 264.474,178.828 293.176,178.828 
				293.176,166.815 			"/>
		</g>
		<g>
			<linearGradient id="SVGID_1_" gradientUnits="userSpaceOnUse" x1="24.6733" y1="178.0972" x2="24.7741" y2="120.3487">
				<stop  offset="0" style="stop-color:#9A999E"/>
				<stop  offset="1" style="stop-color:#FFFFFF"/>
			</linearGradient>
			<path fill="url(#SVGID_1_)" d="M1.729,120.332h13.098c8.441,0,14.713,1.042,18.817,3.119c4.103,2.079,7.483,5.462,10.14,10.145
				c2.655,4.684,3.983,10.151,3.983,16.406c0,4.445-0.744,8.536-2.229,12.264c-1.487,3.729-3.538,6.821-6.154,9.28
				c-2.618,2.46-5.453,4.16-8.501,5.1c-3.05,0.943-8.336,1.412-15.858,1.412H1.729V120.332z M12.704,130.926v36.419h5.135
				c5.054,0,8.718-0.576,10.996-1.729c2.278-1.151,4.14-3.088,5.587-5.813c1.449-2.726,2.171-6.078,2.171-10.058
				c0-6.13-1.725-10.881-5.172-14.26c-3.105-3.037-8.093-4.56-14.963-4.56H12.704z"/>
			<linearGradient id="SVGID_2_" gradientUnits="userSpaceOnUse" x1="62.957" y1="178.0659" x2="63.0578" y2="120.3214">
				<stop  offset="0" style="stop-color:#9A999E"/>
				<stop  offset="1" style="stop-color:#FFFFFF"/>
			</linearGradient>
			<path fill="url(#SVGID_2_)" d="M57.52,120.332h10.977v57.726H57.52V120.332z"/>
			<linearGradient id="SVGID_3_" gradientUnits="userSpaceOnUse" x1="108.4604" y1="179.5073" x2="108.5663" y2="118.8785">
				<stop  offset="0" style="stop-color:#9A999E"/>
				<stop  offset="1" style="stop-color:#FFFFFF"/>
			</linearGradient>
			<path fill="url(#SVGID_3_)" d="M134.552,129.75l-7.786,7.651c-4.926-5.18-10.668-7.768-17.228-7.768
				c-5.718,0-10.508,1.883-14.366,5.649c-3.858,3.769-5.79,8.349-5.79,13.738c0,5.568,2.003,10.29,6.006,14.163
				c4.006,3.874,8.948,5.811,14.825,5.811c3.818,0,7.039-0.798,9.664-2.395c2.621-1.596,4.734-4.096,6.344-7.496H109.4v-10.318
				h29.221l0.076,2.433c0,5.046-1.315,9.834-3.949,14.36c-2.633,4.526-6.039,7.982-10.225,10.362
				c-4.187,2.378-9.095,3.568-14.729,3.568c-6.027,0-11.404-1.3-16.128-3.903c-4.725-2.603-8.465-6.31-11.212-11.127
				c-2.753-4.812-4.127-10.004-4.127-15.579c0-7.64,2.54-14.284,7.62-19.934c6.029-6.727,13.873-10.086,23.532-10.086
				c5.055,0,9.78,0.929,14.177,2.786C127.366,123.235,130.999,125.927,134.552,129.75z"/>
			<linearGradient id="SVGID_4_" gradientUnits="userSpaceOnUse" x1="153.4932" y1="178.0659" x2="153.5939" y2="120.3214">
				<stop  offset="0" style="stop-color:#9A999E"/>
				<stop  offset="1" style="stop-color:#FFFFFF"/>
			</linearGradient>
			<path fill="url(#SVGID_4_)" d="M148.056,120.332h10.979v57.726h-10.979V120.332z"/>
			<linearGradient id="SVGID_5_" gradientUnits="userSpaceOnUse" x1="181.7021" y1="178.0669" x2="181.8029" y2="120.3038">
				<stop  offset="0" style="stop-color:#9A999E"/>
				<stop  offset="1" style="stop-color:#FFFFFF"/>
			</linearGradient>
			<path fill="url(#SVGID_5_)" d="M165.744,120.332h32.101v10.83h-10.58v46.896h-11.213v-46.896h-10.308V120.332z"/>
			<linearGradient id="SVGID_6_" gradientUnits="userSpaceOnUse" x1="228.7197" y1="178.106" x2="228.8206" y2="120.3219">
				<stop  offset="0" style="stop-color:#9A999E"/>
				<stop  offset="1" style="stop-color:#FFFFFF"/>
			</linearGradient>
			<path fill="url(#SVGID_6_)" d="M223.146,120.332h11.21l22.339,57.726h-11.489l-4.546-11.888h-23.696l-4.729,11.888h-11.489
				L223.146,120.332z M228.82,135.638l-7.793,19.818h15.537L228.82,135.638z"/>
			<linearGradient id="SVGID_7_" gradientUnits="userSpaceOnUse" x1="278.7744" y1="178.0806" x2="278.8752" y2="120.3355">
				<stop  offset="0" style="stop-color:#9A999E"/>
				<stop  offset="1" style="stop-color:#FFFFFF"/>
			</linearGradient>
			<path fill="url(#SVGID_7_)" d="M265.243,120.332h11.055v47.251h16.108v10.475h-27.163V120.332z"/>
		</g>
	</g>
</g>
</svg>
