<?xml version="1.0" encoding="utf-8"?>
<!-- Generator: Adobe Illustrator 16.0.0, SVG Export Plug-In . SVG Version: 6.00 Build 0)  -->
<!DOCTYPE svg PUBLIC "-//W3C//DTD SVG 1.1//EN" "http://www.w3.org/Graphics/SVG/1.1/DTD/svg11.dtd">
<svg version="1.1" id="Capa_1" xmlns="http://www.w3.org/2000/svg" xmlns:xlink="http://www.w3.org/1999/xlink" x="0px" y="0px"
	 width="300px" height="211.455px" viewBox="0 0 300 211.455" enable-background="new 0 0 300 211.455" xml:space="preserve">
<g>
	<g>
		<path fill="#FFFFFF" d="M226.666,55.75c-8.702-28.751-33.146-50.658-63.308-55.705c-1.814-0.304-3.3,1.011-3.3,2.854v15.813
			c0,1.841,1.476,3.582,3.27,4.005c18.93,4.464,34.295,18.257,40.955,36.244c2.309,6.239,3.574,12.977,3.574,20.006
			c0,7.032-1.266,13.771-3.574,20.007c-6.66,17.989-22.025,31.781-40.955,36.245c-1.794,0.423-3.27,2.165-3.27,4.005v15.813
			c0,1.843,1.485,3.158,3.3,2.854c30.161-5.046,54.605-26.954,63.308-55.706c0.535-1.763,2.393-3.211,4.234-3.211h65.878
			c1.842,0,3.334-1.493,3.334-3.334V62.294c0-1.84-1.492-3.333-3.334-3.333H230.9C229.059,58.96,227.201,57.512,226.666,55.75z"/>
		<path fill="#FFFFFF" d="M69.212,58.96H3.334c-1.841,0-3.333,1.494-3.333,3.333V95.64c0,1.841,1.493,3.334,3.333,3.334h65.878
			c1.844,0,3.702,1.448,4.234,3.211c8.705,28.752,33.149,50.66,63.305,55.706c1.82,0.305,3.3-1.011,3.3-2.854v-15.813
			c0-1.84-1.471-3.582-3.267-4.005c-18.928-4.463-34.296-18.255-40.955-36.245c-2.307-6.236-3.572-12.976-3.572-20.007
			c0-7.029,1.266-13.768,3.572-20.006c6.658-17.987,22.027-31.779,40.955-36.244c1.796-0.423,3.267-2.164,3.267-4.005V2.898
			c0-1.843-1.48-3.158-3.3-2.854c-30.156,5.047-54.6,26.954-63.307,55.706C72.914,57.514,71.056,58.96,69.212,58.96z"/>
		<circle fill="#FFFFFF" cx="150.056" cy="78.341" r="30.012"/>
	</g>
	<g>
		<g>
			<path fill="#FFFFFF" d="M33.525,203.423c-0.717,1.311-1.593,2.492-2.637,3.548c-1.036,1.057-2.192,1.963-3.455,2.723
				c-1.263,0.758-2.634,1.346-4.105,1.762c-1.471,0.416-2.997,0.625-4.573,0.625c-2.32,0-4.507-0.446-6.559-1.339
				c-2.053-0.893-3.845-2.104-5.378-3.637c-1.531-1.531-2.744-3.324-3.636-5.377c-0.892-2.051-1.337-4.238-1.337-6.559
				s0.445-4.505,1.337-6.558s2.105-3.844,3.636-5.377c1.533-1.531,3.325-2.744,5.378-3.636c2.051-0.894,4.239-1.339,6.559-1.339
				c1.576,0,3.103,0.209,4.573,0.625c1.471,0.416,2.842,1.004,4.105,1.761c1.263,0.76,2.419,1.668,3.455,2.723
				c1.044,1.058,1.92,2.225,2.637,3.503l-5.846,2.363c-0.478-0.713-1.036-1.381-1.671-2.008c-0.643-0.623-1.347-1.174-2.121-1.649
				c-0.774-0.476-1.593-0.848-2.455-1.116c-0.862-0.267-1.755-0.4-2.677-0.4c-1.487,0-2.877,0.305-4.172,0.915
				c-1.293,0.609-2.417,1.421-3.37,2.429c-0.951,1.014-1.709,2.195-2.274,3.549c-0.566,1.354-0.848,2.759-0.848,4.216
				c0,1.487,0.282,2.9,0.848,4.238c0.565,1.34,1.323,2.514,2.274,3.526c0.953,1.01,2.077,1.821,3.37,2.431
				c1.294,0.61,2.685,0.915,4.172,0.915c0.922,0,1.815-0.134,2.677-0.401c0.862-0.269,1.681-0.64,2.455-1.115
				c0.773-0.478,1.478-1.032,2.121-1.674c0.635-0.639,1.194-1.315,1.671-2.03L33.525,203.423z"/>
			<path fill="#FFFFFF" d="M52.811,212.08c-2.319,0-4.504-0.446-6.558-1.339s-3.845-2.104-5.378-3.637
				c-1.533-1.531-2.741-3.324-3.634-5.377c-0.893-2.051-1.34-4.253-1.34-6.603c0-2.32,0.447-4.514,1.34-6.582
				c0.893-2.066,2.102-3.865,3.634-5.397c1.533-1.532,3.324-2.744,5.378-3.636c2.054-0.894,4.239-1.339,6.558-1.339
				c2.35,0,4.552,0.445,6.605,1.339c2.054,0.892,3.845,2.104,5.375,3.636s2.744,3.331,3.637,5.397
				c0.893,2.068,1.337,4.262,1.337,6.582c0,2.35-0.444,4.552-1.337,6.603c-0.893,2.053-2.106,3.846-3.637,5.377
				c-1.531,1.533-3.322,2.744-5.375,3.637S55.161,212.08,52.811,212.08z M52.835,184.016c-1.485,0-2.873,0.306-4.165,0.915
				c-1.29,0.61-2.417,1.421-3.381,2.431c-0.965,1.012-1.729,2.193-2.295,3.547c-0.564,1.354-0.846,2.76-0.846,4.217
				c0,1.487,0.282,2.9,0.846,4.237c0.566,1.34,1.33,2.523,2.295,3.549c0.964,1.026,2.092,1.844,3.381,2.453
				c1.292,0.61,2.679,0.915,4.165,0.915c1.481,0,2.871-0.305,4.163-0.915c1.292-0.609,2.419-1.427,3.384-2.453
				c0.965-1.025,1.729-2.209,2.292-3.549c0.563-1.337,0.845-2.75,0.845-4.237c0-1.457-0.282-2.862-0.845-4.217
				c-0.563-1.354-1.328-2.535-2.292-3.547c-0.965-1.01-2.092-1.82-3.384-2.431C55.706,184.321,54.316,184.016,52.835,184.016z"/>
			<path fill="#FFFFFF" d="M102.655,211.455l-21.459-19.408v19.408h-6.247V178.84h0.668l21.461,19.72v-19.72h6.245v32.615H102.655z"
				/>
			<path fill="#FFFFFF" d="M137.981,211.455l-21.464-19.408v19.408h-6.245V178.84h0.669l21.461,19.72v-19.72h6.245v32.615H137.981z"
				/>
			<path fill="#FFFFFF" d="M151.841,184.328v8.164h15.797v5.668h-15.797v7.673h17.804v5.622h-24.048v-32.66h24.048v5.533H151.841z"
				/>
			<path fill="#FFFFFF" d="M204.684,203.423c-0.714,1.311-1.593,2.492-2.634,3.548c-1.041,1.057-2.192,1.963-3.458,2.723
				c-1.263,0.758-2.631,1.346-4.103,1.762c-1.476,0.416-2.999,0.625-4.575,0.625c-2.321,0-4.504-0.446-6.558-1.339
				s-3.845-2.104-5.378-3.637c-1.533-1.531-2.741-3.324-3.635-5.377c-0.894-2.051-1.34-4.238-1.34-6.559s0.446-4.505,1.34-6.558
				s2.102-3.844,3.635-5.377c1.533-1.531,3.324-2.744,5.378-3.636c2.054-0.894,4.236-1.339,6.558-1.339
				c1.576,0,3.1,0.209,4.575,0.625c1.472,0.416,2.84,1.004,4.103,1.761c1.266,0.76,2.417,1.668,3.458,2.723
				c1.041,1.058,1.92,2.225,2.634,3.503l-5.846,2.363c-0.475-0.713-1.034-1.381-1.672-2.008c-0.642-0.623-1.347-1.174-2.12-1.649
				s-1.593-0.848-2.452-1.116c-0.865-0.267-1.758-0.4-2.68-0.4c-1.485,0-2.878,0.305-4.17,0.915
				c-1.294,0.609-2.416,1.421-3.369,2.429c-0.953,1.014-1.713,2.195-2.276,3.549c-0.563,1.354-0.848,2.759-0.848,4.216
				c0,1.487,0.284,2.9,0.848,4.238c0.563,1.34,1.323,2.514,2.276,3.526c0.953,1.01,2.075,1.821,3.369,2.431
				c1.292,0.61,2.685,0.915,4.17,0.915c0.922,0,1.814-0.134,2.68-0.401c0.859-0.269,1.679-0.64,2.452-1.115
				c0.773-0.478,1.479-1.032,2.12-1.674c0.638-0.639,1.197-1.315,1.672-2.03L204.684,203.423z"/>
			<path fill="#FFFFFF" d="M232.223,184.328h-9.325v27.127h-6.247v-27.127h-9.37v-5.533h24.942V184.328z"/>
			<path fill="#FFFFFF" d="M250.259,212.08c-2.32,0-4.504-0.446-6.558-1.339s-3.845-2.104-5.378-3.637
				c-1.53-1.531-2.741-3.324-3.634-5.377c-0.894-2.051-1.34-4.253-1.34-6.603c0-2.32,0.446-4.514,1.34-6.582
				c0.893-2.066,2.104-3.865,3.634-5.397c1.533-1.532,3.324-2.744,5.378-3.636c2.054-0.894,4.237-1.339,6.558-1.339
				c2.351,0,4.552,0.445,6.605,1.339c2.052,0.892,3.845,2.104,5.378,3.636c1.528,1.532,2.742,3.331,3.635,5.397
				c0.894,2.068,1.338,4.262,1.338,6.582c0,2.35-0.444,4.552-1.338,6.603c-0.893,2.053-2.106,3.846-3.635,5.377
				c-1.533,1.533-3.326,2.744-5.378,3.637C254.811,211.634,252.609,212.08,250.259,212.08z M250.283,184.016
				c-1.485,0-2.873,0.306-4.165,0.915c-1.289,0.61-2.417,1.421-3.384,2.431c-0.965,1.012-1.729,2.193-2.293,3.547
				c-0.561,1.354-0.845,2.76-0.845,4.217c0,1.487,0.284,2.9,0.845,4.237c0.564,1.34,1.328,2.523,2.293,3.549
				c0.967,1.026,2.095,1.844,3.384,2.453c1.292,0.61,2.68,0.915,4.165,0.915c1.482,0,2.87-0.305,4.165-0.915
				c1.289-0.609,2.416-1.427,3.381-2.453c0.965-1.025,1.729-2.209,2.293-3.549c0.563-1.337,0.845-2.75,0.845-4.237
				c0-1.457-0.281-2.862-0.845-4.217c-0.563-1.354-1.328-2.535-2.293-3.547c-0.965-1.01-2.092-1.82-3.381-2.431
				C253.153,184.321,251.766,184.016,250.283,184.016z"/>
			<path fill="#FFFFFF" d="M278.642,211.455h-6.245v-32.66h14.84c1.666,0,3.194,0.275,4.58,0.825
				c1.385,0.552,2.569,1.324,3.551,2.32c0.984,0.998,1.751,2.188,2.305,3.569c0.549,1.383,0.823,2.895,0.823,4.529
				c0,2.469-0.615,4.625-1.853,6.47c-1.239,1.844-2.883,3.168-4.941,3.969c2.747,3.63,5.457,7.289,8.134,10.978h-7.45
				c-1.304-1.695-2.579-3.406-3.826-5.132c-1.244-1.724-2.49-3.48-3.734-5.265h-6.183V211.455z M278.642,195.526h8.585
				c0.563,0,1.146-0.112,1.755-0.335c0.609-0.223,1.148-0.565,1.622-1.026c0.478-0.46,0.869-1.032,1.18-1.718
				c0.31-0.684,0.468-1.486,0.468-2.408c0-0.477-0.063-1.041-0.18-1.695c-0.116-0.654-0.355-1.277-0.709-1.875
				c-0.358-0.594-0.859-1.1-1.514-1.517c-0.654-0.415-1.528-0.624-2.622-0.624h-8.585V195.526z"/>
		</g>
	</g>
</g>
</svg>
