<?xml version="1.0" encoding="utf-8"?>
<!-- Generator: Adobe Illustrator 16.0.0, SVG Export Plug-In . SVG Version: 6.00 Build 0)  -->
<!DOCTYPE svg PUBLIC "-//W3C//DTD SVG 1.1//EN" "http://www.w3.org/Graphics/SVG/1.1/DTD/svg11.dtd">
<svg version="1.1" id="Capa_1" xmlns="http://www.w3.org/2000/svg" xmlns:xlink="http://www.w3.org/1999/xlink" x="0px" y="0px"
	 width="162.005px" height="110.898px" viewBox="0 0 162.005 110.898" enable-background="new 0 0 162.005 110.898"
	 xml:space="preserve">
<g>
	<polygon fill="#D4E9F8" points="72.003,18 72.003,0 54.002,18 	"/>
	<polygon fill="#005172" points="90.003,18 90.003,36.001 108.003,18 	"/>
	<polygon fill="#D4E9F8" points="54.002,54.001 54.002,72.003 72.003,54.001 	"/>
	<polygon fill="#B6D9F3" points="72.003,0 72.003,18 90.003,0 	"/>
	<polygon fill="#A2CFF0" points="90.003,18 108.003,18 90.003,0 	"/>
	<polygon fill="#ACD4F1" points="72.003,72.002 72.003,54.001 54.002,72.002 	"/>
	<polygon fill="#007BAD" points="72.003,36.001 72.003,54.001 90.003,36.001 	"/>
	<polygon fill="#0097D5" points="90.003,72.002 90.003,54.001 72.003,72.002 	"/>
	<polygon fill="#006992" points="90.003,36.001 90.003,18 72.003,36.001 	"/>
	<polygon fill="#0081B6" points="90.003,54.001 90.003,72.003 108.003,54.001 	"/>
	<polygon fill="#008DC7" points="72.002,54.001 72.003,36 54.001,54.001 	"/>
	<polygon fill="#85C0EA" points="72.003,54.001 72.003,72.003 90.003,54.001 	"/>
	<g>
		<polygon fill="#C12B2C" points="126.005,18 126.005,0 108.003,18 		"/>
		<polygon fill="#A11217" points="108.003,18 108.003,36 126.005,18 		"/>
		<polygon fill="#C12B2C" points="126.005,36.001 126.005,18 108.003,36.001 		"/>
		<polygon fill="#4C0000" points="126.005,54.001 126.005,36.001 108.003,54.001 		"/>
		<polygon fill="#631201" points="108.003,54.002 108.003,72.003 126.005,54.002 		"/>
		<polygon fill="#B90813" points="144.005,54.001 144.005,72.003 162.005,54.001 		"/>
		<polygon fill="#631201" points="144.005,36.001 162.005,36.001 144.005,18 		"/>
		<polygon fill="#B90813" points="126.005,18 126.005,36.001 144.005,18 		"/>
		<polygon fill="#4C0000" points="144.005,36.001 144.005,54.001 162.005,36.001 		"/>
		<polygon fill="#4C0000" points="126.005,54.001 126.005,72.003 144.005,54.001 		"/>
		<polygon fill="#4C0000" points="144.005,36.001 144.005,18 126.005,36.001 		"/>
		<polygon fill="#C12B2C" points="162.005,54.001 162.005,36.001 144.005,54.001 		"/>
		<polygon fill="#C12B2C" points="144.005,72.003 144.005,54.001 126.005,72.003 		"/>
		<polygon fill="#B90813" points="108.003,36.001 108.003,54.001 126.005,36.001 		"/>
	</g>
	<g>
		<polygon fill="#C12B2C" points="18.001,18 18.001,0 0,18 		"/>
		<polygon fill="#A11217" points="0,18 0,36 18.001,18 		"/>
		<polygon fill="#C12B2C" points="18.001,36.001 18.001,18 0,36.001 		"/>
		<polygon fill="#4C0000" points="18.001,54.001 18.001,36.001 0,54.001 		"/>
		<polygon fill="#631201" points="0,54.002 0,72.003 18.001,54.002 		"/>
		<polygon fill="#B90813" points="36.001,54.001 36.001,72.003 54.002,54.001 		"/>
		<polygon fill="#631201" points="36.001,36.001 54.002,36.001 36.001,18 		"/>
		<polygon fill="#B90813" points="18.001,18 18.001,36.001 36.001,18 		"/>
		<polygon fill="#4C0000" points="36.001,36.001 36.001,54.001 54.002,36.001 		"/>
		<polygon fill="#4C0000" points="18.001,54.001 18.001,72.003 36.001,54.001 		"/>
		<polygon fill="#4C0000" points="36.001,36.001 36.001,18 18.001,36.001 		"/>
		<polygon fill="#C12B2C" points="54.002,54.001 54.002,36.001 36.001,54.001 		"/>
		<polygon fill="#C12B2C" points="36.001,72.003 36.001,54.001 18.001,72.003 		"/>
		<polygon fill="#B90813" points="0,36.001 0,54.001 18.001,36.001 		"/>
	</g>
	<polygon fill="#CAE3F6" points="90.003,18 90.003,0 72.003,18 	"/>
</g>
<g>
	<path fill="#FFFFFF" d="M11.58,110.898H0.001V81.524H11.58c4.194,0,7.639,1.23,10.337,3.691c1.442,1.312,2.53,2.896,3.265,4.756
		c0.736,1.859,1.103,3.939,1.103,6.24c0,2.327-0.367,4.42-1.103,6.279c-0.735,1.859-1.822,3.445-3.265,4.756
		c-1.309,1.203-2.839,2.113-4.589,2.729C15.58,110.591,13.663,110.898,11.58,110.898z M5.619,105.923h5.979
		c1.043,0,2.101-0.121,3.17-0.361c1.07-0.241,2.04-0.716,2.91-1.426c0.869-0.707,1.585-1.691,2.146-2.949
		c0.561-1.256,0.842-2.902,0.842-4.936s-0.281-3.684-0.842-4.955c-0.562-1.271-1.285-2.254-2.167-2.949
		c-0.883-0.696-1.86-1.164-2.93-1.404c-1.07-0.242-2.113-0.362-3.13-0.362H5.619V105.923z"/>
	<path fill="#FFFFFF" d="M37.3,110.898h-5.617V81.564H37.3V110.898z"/>
	<path fill="#FFFFFF" d="M72.483,94.847c-0.026,0.563-0.04,1.084-0.04,1.565c-0.026,0.429-0.04,0.849-0.04,1.264
		s-0.014,0.729-0.04,0.942c-0.16,1.847-0.661,3.559-1.505,5.137c-0.843,1.579-1.926,2.937-3.25,4.074
		c-1.324,1.137-2.849,2.025-4.575,2.668c-1.725,0.643-3.537,0.963-5.438,0.963c-2.086,0-4.053-0.4-5.898-1.204
		c-1.846-0.802-3.461-1.892-4.847-3.271c-1.386-1.377-2.482-2.989-3.29-4.836c-0.809-1.846-1.213-3.812-1.213-5.898
		c0-2.086,0.404-4.059,1.213-5.918c0.808-1.859,1.904-3.479,3.29-4.855c1.386-1.378,3.001-2.469,4.847-3.271
		c1.846-0.802,3.813-1.203,5.898-1.203c2.649,0,5.077,0.615,7.283,1.846c2.208,1.23,3.993,2.876,5.358,4.936l-4.816,2.93
		c-0.856-1.258-1.973-2.314-3.351-3.17c-1.377-0.856-2.868-1.285-4.475-1.285c-1.338,0-2.588,0.275-3.752,0.823
		c-1.163,0.548-2.18,1.278-3.05,2.187c-0.869,0.91-1.559,1.974-2.066,3.191c-0.508,1.217-0.762,2.48-0.762,3.791
		c0,1.339,0.254,2.609,0.762,3.813c0.508,1.204,1.197,2.262,2.066,3.17c0.87,0.91,1.887,1.639,3.05,2.188
		c1.164,0.549,2.414,0.822,3.752,0.822c1.018,0,1.993-0.153,2.93-0.461s1.792-0.742,2.568-1.305c0.775-0.562,1.451-1.23,2.026-2.006
		c0.575-0.776,0.996-1.632,1.264-2.568H55.55v-5.057H72.483z"/>
	<path fill="#FFFFFF" d="M82.985,110.898h-5.618V81.564h5.618V110.898z"/>
	<path fill="#FFFFFF" d="M109.69,86.501h-8.388v24.397h-5.617V86.501h-8.427v-4.977h22.432V86.501z"/>
	<path fill="#FFFFFF" d="M107.187,110.898l15.008-29.334h0.562l15.008,29.334h-6.1l-2.287-4.615h-13.845l-2.246,4.615H107.187z
		 M118.262,101.388h8.386l-4.172-8.868L118.262,101.388z"/>
	<path fill="#FFFFFF" d="M162.001,105.923v4.976h-21.147V81.524h5.617v24.398H162.001z"/>
</g>
</svg>
