<?xml version="1.0" encoding="utf-8"?>
<!-- Generator: Adobe Illustrator 16.0.0, SVG Export Plug-In . SVG Version: 6.00 Build 0)  -->
<!DOCTYPE svg PUBLIC "-//W3C//DTD SVG 1.1//EN" "http://www.w3.org/Graphics/SVG/1.1/DTD/svg11.dtd">
<svg version="1.1" id="Capa_1" xmlns="http://www.w3.org/2000/svg" xmlns:xlink="http://www.w3.org/1999/xlink" x="0px" y="0px"
	 width="512px" height="512px" viewBox="0 0 512 512" enable-background="new 0 0 512 512" xml:space="preserve">
<g>
	<path fill="#D80027" d="M336.303,95.351c0-19.123-15.551-34.673-34.673-34.673s-34.673,15.551-34.673,34.673v134.358
		c0,2.384-1.951,4.334-4.334,4.334c-2.385,0-4.334-1.951-4.334-4.334V34.673C258.289,15.551,242.737,0,223.615,0
		s-34.673,15.551-34.673,34.673v195.036c0,2.384-1.951,4.334-4.334,4.334s-4.334-1.951-4.334-4.334V73.68
		c0-16.729-13.609-30.339-30.339-30.339s-30.339,13.609-30.339,30.339v173.366c0,2.384-1.951,4.334-4.334,4.334
		c-2.383,0-4.334-1.95-4.334-4.334V138.692c0-16.73-13.609-30.339-30.426-30.339c-16.729,0-30.339,13.609-30.339,30.339
		l0.018,235.751c3.01,43.483,14.51,73.47,31.327,94.049l254.795-254.795V95.351z"/>
	<path fill="#00CC33" d="M204.545,512c59.344,0,112.645-29.438,138.927-76.489c3.381-5.461,12.525-19.833,23.369-36.874
		c27.114-42.588,49.825-78.37,53.18-84.732c7.481-14.164,15.829-25.233,24.133-32.012c7.516-6.138,12.109-13.965,15.846-20.839
		c1.925-3.571,3.606-16.704-1.916-25.97c-3.735-6.258-10.012-9.708-17.796-9.708c-14.45,0.052-31.838,5.782-45.378,14.944
		c-12.491,8.451-30.6,24.114-45.881,50.821c-2.87,5.011-7.576,8.408-12.613,9.215c-0.017-1.162-0.008-2.488-0.008-3.736
		c0-2.688,0.008-5.877-0.104-9.396v-73.525L81.508,468.492C111.567,505.275,158.615,512,204.545,512z"/>
</g>
</svg>
