<?xml version="1.0" encoding="utf-8"?>
<!-- Generator: Adobe Illustrator 16.0.0, SVG Export Plug-In . SVG Version: 6.00 Build 0)  -->
<!DOCTYPE svg PUBLIC "-//W3C//DTD SVG 1.1//EN" "http://www.w3.org/Graphics/SVG/1.1/DTD/svg11.dtd">
<svg version="1.1" id="Layer_1" xmlns="http://www.w3.org/2000/svg" xmlns:xlink="http://www.w3.org/1999/xlink" x="0px" y="0px"
	 width="300px" height="300px" viewBox="0 0 300 300" enable-background="new 0 0 300 300" xml:space="preserve">
<g>
	<path fill="#F2D23D" d="M297.624,115.593c-1.585-4.879-5.803-8.436-10.88-9.173l-86.103-12.51l-38.507-78.028
		c-2.271-4.601-6.956-7.514-12.087-7.514s-9.817,2.914-12.087,7.514L99.457,93.908l-86.104,12.51
		c-5.077,0.738-9.296,4.294-10.881,9.173c-1.586,4.879-0.264,10.237,3.412,13.818l62.305,60.726l-14.713,85.767
		c-0.867,5.056,1.211,10.168,5.362,13.182c4.151,3.016,9.652,3.415,14.195,1.027l77.017-40.489l77.018,40.489
		c1.972,1.036,4.124,1.548,6.27,1.548c0.021,0,0.04,0,0.058,0c7.427-0.021,13.44-6.047,13.44-13.479
		c0-1.036-0.118-2.044-0.338-3.012l-14.588-85.032l62.306-60.726C297.887,125.829,299.21,120.473,297.624,115.593z"/>
</g>
</svg>
