<?xml version="1.0" encoding="iso-8859-1"?>
<!-- Generator: Adobe Illustrator 19.0.0, SVG Export Plug-In . SVG Version: 6.00 Build 0)  -->
<svg xmlns="http://www.w3.org/2000/svg" xmlns:xlink="http://www.w3.org/1999/xlink" version="1.1" id="Layer_1" x="0px" y="0px" viewBox="0 0 490.1 490.1" style="enable-background:new 0 0 490.1 490.1;" xml:space="preserve" width="512px" height="512px">
<g>
	<g>
		<g>
			<path d="M478.7,423.563l-104-104l-7.3,7.3l-11.3-11.3c57.7-77.4,51.5-187.4-18.8-257.7c-77.1-77.1-202.2-77.1-279.4,0     c-77.2,77.2-77.2,202.2,0,279.4c70.3,70.3,180.3,76.5,257.7,18.8l11.3,11.3l-7.3,7.3l104,104c15.2,15.2,39.9,15.2,55.1,0     C493.9,463.462,493.9,438.763,478.7,423.563z M299.1,299.063c-56,56-146.9,56-203,0c-56-56-56-146.9,0-203c56-56,146.9-56,203,0     C355.2,152.162,355.2,243.063,299.1,299.063z" fill="#006DF0"/>
			<polygon points="178.9,201.662 151.7,174.362 123.4,202.563 150.6,229.862 178.8,258.162 207.1,229.962 272,165.362      243.8,137.063    " fill="#006DF0"/>
		</g>
	</g>
</g>
<g>
</g>
<g>
</g>
<g>
</g>
<g>
</g>
<g>
</g>
<g>
</g>
<g>
</g>
<g>
</g>
<g>
</g>
<g>
</g>
<g>
</g>
<g>
</g>
<g>
</g>
<g>
</g>
<g>
</g>
</svg>
